<svg xmlns="http://www.w3.org/2000/svg" viewBox="0 0 24 24" width="72" height="72" fill="none">
  <rect width="24" height="24" rx="4" fill="#24292f"/>
  <path d="M12 .5C5.73.5.75 5.48.75 11.75c0 4.96 3.22 9.15 7.69 10.62.56.1.77-.24.77-.54 0-.27-.01-1-.02-1.96-3.13.68-3.79-1.51-3.79-1.51-.51-1.3-1.25-1.64-1.25-1.64-1.02-.7.08-.69.08-.69 1.13.08 1.73 1.16 1.73 1.16 1 1.72 2.63 1.22 3.27.93.1-.73.39-1.22.71-1.5-2.5-.28-5.12-1.25-5.12-5.57 0-1.23.44-2.23 1.16-3.02-.12-.28-.5-1.4.11-2.93 0 0 .95-.3 3.12 1.16a10.78 10.78 0 0 1 2.84-.38c.96.01 1.93.13 2.84.38 2.16-1.46 3.11-1.16 3.11-1.16.61 1.53.23 2.65.12 2.93.72.79 1.16 1.79 1.16 3.02 0 4.33-2.63 5.29-5.13 5.57.4.35.76 1.04.76 2.1 0 1.52-.01 2.74-.01 3.12 0 .31.2.65.78.54C20.03 20.9 23.25 16.7 23.25 11.75 23.25 5.48 18.27.5 12 .5z" fill="#ffffff"/>
</svg>